<svg width="419" height="535" viewBox="0 0 419 535" fill="none" xmlns="http://www.w3.org/2000/svg">
<path d="M209.101 534.897C324.585 534.897 418.203 529.274 418.203 522.338C418.203 515.401 324.585 509.778 209.101 509.778C93.6179 509.778 0 515.401 0 522.338C0 529.274 93.6179 534.897 209.101 534.897Z" fill="#80EEE9"/>
<path d="M222.174 376.969H215.227V498.288H222.174V376.969Z" fill="#897C76"/>
<path d="M222.174 376.969H215.227V397.144H222.174V376.969Z" fill="#6D625E"/>
<path d="M268.671 360.401H168.864V381.111H268.671V360.401Z" fill="#CE4141"/>
<path d="M268.671 378.171H168.864V386.856H268.671V378.171Z" fill="#BC3737"/>
<path d="M238.475 503.766H199.728C199.193 503.766 198.793 503.632 198.392 503.499C197.59 503.098 196.922 502.162 196.922 501.094C196.922 500.425 197.189 499.891 197.456 499.357C197.991 498.689 198.659 498.288 199.594 498.288H238.341C239.277 498.288 240.212 498.822 240.613 499.624C240.88 500.025 241.014 500.559 241.014 501.094C241.014 502.029 240.613 502.83 239.945 503.231C239.544 503.499 239.01 503.766 238.475 503.766Z" fill="#2E3642"/>
<path d="M198.124 512.45C201.224 512.45 203.736 509.938 203.736 506.839C203.736 503.739 201.224 501.227 198.124 501.227C195.025 501.227 192.513 503.739 192.513 506.839C192.513 509.938 195.025 512.45 198.124 512.45Z" fill="#1E2733"/>
<path d="M198.124 510.179C199.969 510.179 201.465 508.683 201.465 506.839C201.465 504.994 199.969 503.498 198.124 503.498C196.28 503.498 194.784 504.994 194.784 506.839C194.784 508.683 196.28 510.179 198.124 510.179Z" fill="#897C76"/>
<path d="M239.277 512.45C242.376 512.45 244.888 509.938 244.888 506.839C244.888 503.739 242.376 501.227 239.277 501.227C236.177 501.227 233.665 503.739 233.665 506.839C233.665 509.938 236.177 512.45 239.277 512.45Z" fill="#1E2733"/>
<path d="M239.277 510.179C241.121 510.179 242.617 508.683 242.617 506.839C242.617 504.994 241.121 503.498 239.277 503.498C237.432 503.498 235.936 504.994 235.936 506.839C235.936 508.683 237.432 510.179 239.277 510.179Z" fill="#897C76"/>
<path d="M182.225 321.119L156.839 342.363L178.751 363.207C178.751 363.207 214.692 375.098 258.249 363.207L283.368 344.902L256.78 315.775L182.225 321.119Z" fill="#1E2733"/>
<path d="M266.934 214.498L293.79 249.236L295.928 298.94L256.913 260.326L266.934 214.498Z" fill="#1E2733"/>
<path d="M104.062 214.498L100.054 208.752C100.054 208.752 100.588 197.93 97.1144 196.193C93.7741 194.456 90.5675 185.638 88.8305 186.84C87.0936 187.909 86.96 191.917 88.8305 194.189C90.7011 196.46 92.1708 198.732 92.1708 198.732C92.1708 198.732 76.6719 195.926 74.8014 195.525C72.9308 195.124 67.8536 187.107 66.7847 188.31C65.7158 189.379 67.5864 194.456 69.9914 197.262C69.9914 197.262 63.0436 190.448 62.6427 191.784C62.2419 193.12 65.5822 199.266 68.388 200.602C68.388 200.602 59.9705 195.258 59.4361 196.327C58.9016 197.395 62.5091 202.473 65.1814 203.942C65.1814 203.942 56.8975 198.732 56.8975 200.736C56.8975 203.408 64.5133 209.955 67.1855 211.024C73.7325 213.562 84.1541 215.299 89.8994 214.765L93.2397 221.98L104.062 214.498Z" fill="#FFC585"/>
<path d="M96.5799 231.466L92.1707 228.66L88.296 220.911L106.2 211.959L110.743 219.174L96.5799 231.466Z" fill="#EFEFEF"/>
<path d="M170.467 214.498L137.331 255.783L110.609 219.04L92.0372 228.527C92.0372 228.527 120.764 289.453 131.052 291.057C141.34 292.66 178.751 260.326 178.751 260.326L170.467 214.498Z" fill="#1E2733"/>
<path d="M204.404 210.89C203.335 210.89 194.116 231.199 194.116 231.199L218.834 260.46L244.888 221.045L227.118 202.74L204.404 210.89Z" fill="#D8D8D8"/>
<path d="M218.7 260.326L226.45 250.038L221.506 220.911H218.7H216.028L210.951 250.038L218.7 260.326Z" fill="#CE4141"/>
<path d="M222.842 211.024L218.834 209.42H218.701L214.692 211.024L213.089 213.562L216.028 220.911H218.567H218.968H221.506L224.312 213.562L222.842 211.024Z" fill="#BC3737"/>
<path d="M266.934 214.498L240.88 200.335L232.462 244.827L218.834 260.326L205.072 244.827L196.655 200.335L170.467 214.498C170.467 214.498 169.665 291.19 179.686 321.119H216.429H218.567H257.448C267.736 291.324 266.934 214.498 266.934 214.498Z" fill="#2E3642"/>
<path d="M188.638 295.867L174.743 297.47C174.743 297.47 175.544 308.961 172.471 316.844C169.532 324.727 168.864 332.343 168.864 332.343C168.864 332.343 178.751 328.201 184.763 330.873C190.776 333.411 199.995 340.493 206.141 340.359C206.141 340.359 219.636 336.484 221.106 322.99L188.638 295.867Z" fill="#2E3642"/>
<path d="M248.897 295.867L262.659 297.47C262.659 297.47 261.991 308.961 264.93 316.844C267.87 324.727 271.477 331.674 271.477 331.674C271.477 331.674 258.65 328.201 252.638 330.739C246.625 333.278 237.406 340.359 231.26 340.226C231.26 340.226 217.765 336.351 216.296 322.856L248.897 295.867Z" fill="#2E3642"/>
<path d="M203.335 210.89C203.335 210.89 205.072 235.474 218.834 260.46C218.834 260.46 201.197 247.767 194.65 239.75C194.65 239.75 185.832 222.247 196.788 200.468L208.145 193.788L203.335 210.89Z" fill="#3A4556"/>
<path d="M234.199 210.89C234.199 210.89 232.463 235.474 218.701 260.46C218.701 260.46 236.337 247.767 242.884 239.75C242.884 239.75 251.703 222.247 240.746 200.468L229.389 193.788L234.199 210.89Z" fill="#3A4556"/>
<path d="M234.867 108.277C234.867 108.277 231.527 95.9845 213.623 98.3895C195.319 100.928 180.087 115.759 182.358 139.141C184.63 162.656 201.598 167.734 201.598 167.734L249.698 157.446C249.698 157.446 261.99 140.611 256.78 123.642C250.901 103.734 234.867 108.277 234.867 108.277Z" fill="#543239"/>
<path d="M237.94 198.731C237.94 198.731 235.402 194.055 233.13 192.051C228.855 188.31 218.7 187.642 218.7 187.642C218.7 187.642 208.68 188.443 204.27 192.051C201.999 194.055 199.46 198.731 199.46 198.731C199.46 198.731 193.047 212.36 199.46 223.583C199.46 223.583 207.611 213.963 218.7 212.627C229.79 213.963 237.94 223.583 237.94 223.583C244.354 212.36 237.94 198.731 237.94 198.731Z" fill="#EFEFEF"/>
<path d="M227.252 176.552L218.701 180.827L210.149 176.552C211.085 184.034 206.007 195.792 206.007 195.792C206.943 206.08 218.701 210.89 218.701 210.89C218.701 210.89 230.458 206.08 231.394 195.792C231.394 195.792 226.45 183.9 227.252 176.552Z" fill="#EAA663"/>
<path d="M249.164 139.408C246.759 114.423 218.968 115.358 218.968 115.358C218.968 115.358 191.177 114.423 188.772 139.408C187.435 154.105 195.185 191.65 218.968 191.65C242.75 191.516 250.633 154.105 249.164 139.408Z" fill="#FFC585"/>
<path d="M229.523 171.876L218.834 172.944L208.145 171.876H206.809C207.878 178.823 212.821 184.034 218.834 184.034C224.846 184.034 229.79 178.823 230.859 171.876H229.523Z" fill="#543239"/>
<path d="M228.989 177.487C225.916 176.819 222.709 176.552 219.101 176.552C215.36 176.552 211.886 176.953 208.68 177.621C210.817 181.495 214.559 184.034 218.701 184.034C223.11 184.034 226.717 181.362 228.989 177.487Z" fill="#CE5555"/>
<path d="M227.652 174.147H210.016C208.947 174.147 208.145 173.345 208.145 172.276V171.876H229.523V172.276C229.523 173.345 228.721 174.147 227.652 174.147Z" fill="#FFE9E9"/>
<path d="M234.066 124.043C234.066 124.043 220.705 132.995 208.145 131.659C193.181 130.055 191.845 146.623 193.181 156.377L190.241 157.312L183.561 129.655L212.421 108.143L232.863 109.88L247.026 117.229L253.84 126.982L254.909 137.538L251.569 146.757L248.496 152.235L246.625 156.243L245.156 155.976C245.289 156.11 251.702 130.991 234.066 124.043Z" fill="#543239"/>
<path d="M246.091 156.911C246.091 156.911 249.431 148.627 253.573 150.498C256.78 151.968 255.31 161.855 250.5 165.462C245.69 169.07 245.022 162.389 245.022 162.389L246.091 156.911Z" fill="#FFC585"/>
<path d="M251.702 154.506C251.702 154.506 248.629 155.709 248.362 158.648C248.228 160.786 250.233 160.519 250.5 159.182C250.767 157.846 249.698 158.114 249.698 158.114C249.698 158.114 249.965 155.842 251.702 154.506Z" fill="#EAA663"/>
<path d="M207.744 153.437C208.999 153.437 210.016 152.121 210.016 150.498C210.016 148.874 208.999 147.558 207.744 147.558C206.49 147.558 205.473 148.874 205.473 150.498C205.473 152.121 206.49 153.437 207.744 153.437Z" fill="#28171B"/>
<path d="M232.73 153.437C233.984 153.437 235.001 152.121 235.001 150.498C235.001 148.874 233.984 147.558 232.73 147.558C231.475 147.558 230.458 148.874 230.458 150.498C230.458 152.121 231.475 153.437 232.73 153.437Z" fill="#28171B"/>
<path d="M200.262 145.821C200.262 145.821 204.271 136.736 209.348 143.283C209.348 143.283 204.271 141.546 200.262 145.821Z" fill="#543239"/>
<path d="M237.807 145.821C237.807 145.821 233.799 136.736 228.721 143.283C228.721 143.283 233.665 141.546 237.807 145.821Z" fill="#543239"/>
<path d="M215.36 157.446C215.36 157.446 213.89 163.057 215.093 163.993C216.295 165.062 220.705 164.26 220.705 164.26C220.705 164.26 219.636 167.199 218.032 166.798C216.429 166.264 213.222 165.195 213.49 163.325C213.623 161.32 215.36 157.446 215.36 157.446Z" fill="#EAA663"/>
<path d="M218.7 277.829C219.955 277.829 220.972 276.812 220.972 275.558C220.972 274.303 219.955 273.286 218.7 273.286C217.446 273.286 216.429 274.303 216.429 275.558C216.429 276.812 217.446 277.829 218.7 277.829Z" fill="#EFEFEF"/>
<path d="M218.7 303.482C219.955 303.482 220.972 302.466 220.972 301.211C220.972 299.957 219.955 298.94 218.7 298.94C217.446 298.94 216.429 299.957 216.429 301.211C216.429 302.466 217.446 303.482 218.7 303.482Z" fill="#EFEFEF"/>
<path d="M204.805 180.827L198.258 178.957C194.784 178.021 192.112 175.216 191.31 171.742L189.84 165.462L190.909 165.195L192.379 171.475C193.181 174.548 195.452 176.953 198.525 177.888L205.072 179.758L204.805 180.827Z" fill="#2E3642"/>
<path d="M188.104 144.084C182.893 145.688 179.419 150.765 180.087 156.377C180.755 161.988 185.298 165.997 190.642 166.397L188.104 144.084Z" fill="#2E3642"/>
<path d="M191.845 167.199L189.573 167.466C189.44 167.466 189.172 167.466 189.039 167.333C188.772 167.199 188.638 166.932 188.638 166.665L185.832 143.55C185.832 143.283 185.966 143.015 186.099 142.882C186.233 142.748 186.367 142.615 186.634 142.615L188.905 142.347C189.172 142.347 189.44 142.481 189.707 142.615C189.84 142.748 189.84 142.882 189.84 143.015L192.646 166.13C192.646 166.397 192.646 166.531 192.513 166.798C192.245 167.065 192.112 167.199 191.845 167.199Z" fill="#3A4556"/>
<path d="M205.072 181.763L201.866 181.095C201.598 181.095 201.331 180.827 201.064 180.694C200.663 180.293 200.529 179.758 200.663 179.224C200.663 178.957 200.93 178.69 201.064 178.422C201.465 178.022 201.999 177.888 202.534 178.022L205.74 178.69C206.141 178.823 206.542 179.09 206.676 179.358C206.943 179.758 206.943 180.159 206.943 180.56C206.809 180.961 206.676 181.228 206.408 181.495C206.141 181.763 205.607 181.896 205.072 181.763Z" fill="#3A4556"/>
<path d="M185.966 492.542L158.175 493.477L147.753 362.405C146.283 349.712 156.037 338.622 168.864 338.622C181.156 338.622 190.91 349.044 190.108 361.336L185.966 492.542Z" fill="#2E3642"/>
<path d="M158.308 493.478C158.308 493.478 145.081 512.317 145.081 517.394C145.081 518.864 145.081 519.799 145.081 520.601C145.081 521.135 145.348 521.536 145.615 521.937C146.016 522.204 146.417 522.471 146.951 522.471H188.504C188.905 522.471 189.306 522.338 189.573 522.204C190.108 521.803 190.375 521.269 190.509 520.601C190.509 519.398 190.509 517.795 190.108 515.39C189.306 510.446 186.233 492.676 186.233 492.676L158.308 493.478Z" fill="#1E2733"/>
<path d="M144.947 517.394C144.947 518.864 144.947 519.799 144.947 520.601C144.947 521.135 145.214 521.536 145.482 521.937C145.883 522.204 146.283 522.471 146.818 522.471H188.371C188.772 522.471 189.173 522.338 189.44 522.204C189.974 521.803 190.241 521.269 190.375 520.601C190.375 519.398 190.375 517.795 189.974 515.39C189.974 515.256 189.974 515.123 189.974 514.989H145.615C145.214 515.924 144.947 516.726 144.947 517.394Z" fill="#2E3642"/>
<path d="M251.435 492.542L279.226 493.477L289.648 362.405C291.118 349.712 281.364 338.622 268.538 338.622C256.245 338.622 246.492 349.044 247.293 361.336L251.435 492.542Z" fill="#2E3642"/>
<path d="M279.226 493.478C279.226 493.478 292.454 512.317 292.454 517.394C292.454 518.864 292.454 519.799 292.454 520.601C292.454 521.135 292.187 521.536 291.919 521.937C291.519 522.204 291.118 522.471 290.583 522.471H249.03C248.629 522.471 248.229 522.338 247.961 522.204C247.427 521.803 247.16 521.269 247.026 520.601C247.026 519.398 247.026 517.795 247.427 515.39C248.229 510.446 251.302 492.676 251.302 492.676L279.226 493.478Z" fill="#1E2733"/>
<path d="M292.454 517.394C292.454 518.864 292.454 519.799 292.454 520.601C292.454 521.135 292.187 521.536 291.919 521.937C291.519 522.204 291.118 522.471 290.583 522.471H249.03C248.629 522.471 248.229 522.338 247.961 522.204C247.427 521.803 247.16 521.269 247.026 520.601C247.026 519.398 247.026 517.795 247.427 515.39C247.427 515.256 247.427 515.123 247.427 514.989H291.786C292.187 515.924 292.454 516.726 292.454 517.394Z" fill="#2E3642"/>
<path d="M209.081 315.641H301.406C301.539 315.641 301.807 315.507 301.94 315.374C302.074 315.24 302.207 315.107 302.207 314.839V310.43C302.207 310.297 302.074 310.029 301.94 309.896C301.807 309.762 301.673 309.629 301.406 309.629H209.081C208.947 309.629 208.68 309.762 208.68 309.762C208.546 309.896 208.412 310.029 208.412 310.297V314.706C208.412 314.839 208.546 315.107 208.68 315.24C208.68 315.507 208.813 315.641 209.081 315.641Z" fill="#0C6D6A"/>
<path d="M355.518 309.762H265.865C265.197 309.762 264.529 309.629 263.995 309.361C262.391 308.56 261.322 306.689 261.857 304.685L276.955 244.293C277.089 243.625 277.489 242.957 277.89 242.556C278.692 241.754 279.761 241.22 280.963 241.22H370.616C371.685 241.22 372.754 241.621 373.422 242.422C374.491 243.357 374.892 244.827 374.625 246.431L359.527 306.823C359.259 307.758 358.725 308.426 358.057 309.094C357.389 309.495 356.454 309.762 355.518 309.762Z" fill="#118E8E"/>
<path d="M358.992 309.762H269.339C268.671 309.762 268.003 309.629 267.469 309.361C265.865 308.56 264.796 306.689 265.331 304.685L280.429 244.293C280.562 243.625 280.963 242.957 281.364 242.556C282.166 241.754 283.235 241.22 284.437 241.22H374.09C375.159 241.22 376.228 241.621 376.896 242.422C377.965 243.357 378.366 244.827 378.099 246.431L363.001 306.823C362.733 307.758 362.199 308.426 361.531 309.094C360.863 309.495 359.927 309.762 358.992 309.762Z" fill="#2BBDCC"/>
<path d="M331.335 279.032C330.399 284.51 326.525 289.053 322.784 289.053C319.042 289.053 316.771 284.643 317.706 279.032C318.642 273.42 322.516 269.011 326.257 269.011C329.999 269.011 332.27 273.554 331.335 279.032Z" fill="#34D8E0"/>
<path d="M265.865 315.641H358.19C358.324 315.641 358.591 315.507 358.725 315.374C358.859 315.24 358.992 315.107 358.992 314.839V310.43C358.992 310.297 358.859 310.029 358.725 309.896C358.591 309.762 358.458 309.629 358.19 309.629H265.865C265.732 309.629 265.464 309.762 265.464 309.762C265.331 309.896 265.197 310.029 265.197 310.297V314.706C265.197 314.839 265.331 315.107 265.464 315.24C265.598 315.507 265.732 315.641 265.865 315.641Z" fill="#118E8E"/>
<path d="M143.878 151.7C143.878 151.7 131.586 149.429 125.574 139.542C131.319 131.124 132.789 121.237 128.513 113.087C121.699 100.126 102.993 96.5189 86.5592 105.07C70.2587 113.621 62.5092 131.124 69.3234 144.084C76.1375 157.045 94.8431 160.652 111.277 152.101C113.682 150.765 115.954 149.295 118.091 147.692C121.164 150.631 129.181 155.441 143.878 151.7Z" fill="#EDEDED"/>
<path d="M145.883 151.7C145.883 151.7 133.59 149.429 127.578 139.542C133.323 131.124 134.793 121.237 130.517 113.087C123.703 100.126 104.998 96.5189 88.5634 105.07C72.2628 113.621 64.5134 131.124 71.3275 144.084C78.1417 157.045 96.8472 160.652 113.281 152.101C115.686 150.765 117.958 149.295 120.096 147.692C123.169 150.631 131.185 155.441 145.883 151.7Z" fill="white"/>
<path d="M99.6531 120.302C96.5801 120.703 94.1751 123.107 93.7742 126.047C93.507 128.452 94.4423 130.723 96.1792 132.059C96.7137 132.46 97.1145 132.995 97.3817 133.529C97.7826 134.197 97.9162 134.999 97.9162 135.801H102.86C102.86 135.132 102.993 134.464 103.261 133.93C103.528 133.262 104.062 132.594 104.73 132.059C106.2 130.857 107.135 128.986 107.135 126.982C107.135 122.974 103.795 119.767 99.6531 120.302Z" fill="#3BCAD1"/>
<path d="M103.127 136.335H97.9161V137.805H103.127V136.335Z" fill="#3BCAD1"/>
<path d="M99.2523 139.542C99.5195 139.675 99.7867 139.809 100.188 139.809H100.856C101.256 139.809 101.657 139.675 101.925 139.274C102.192 139.007 102.325 138.606 102.325 138.206H98.7179C98.5843 138.874 98.8515 139.274 99.2523 139.542Z" fill="#3BCAD1"/>
<path d="M100.455 118.03C100.989 118.03 101.39 117.629 101.39 117.095V114.556C101.39 114.022 100.989 113.621 100.455 113.621C99.9204 113.621 99.5195 114.022 99.5195 114.556V117.095C99.5195 117.629 99.9204 118.03 100.455 118.03Z" fill="#3BCAD1"/>
<path d="M94.4422 118.832C94.5759 119.099 94.9767 119.233 95.2439 119.233C95.3775 119.233 95.6447 119.233 95.7784 119.099C96.1792 118.832 96.3128 118.164 96.0456 117.763L94.5759 115.625C94.3086 115.224 93.6406 115.091 93.2397 115.358C92.8389 115.625 92.7053 116.293 92.9725 116.694L94.4422 118.832Z" fill="#3BCAD1"/>
<path d="M92.0372 121.771L89.7658 120.702C89.2314 120.435 88.6969 120.702 88.4297 121.103C88.1625 121.638 88.4297 122.172 88.8305 122.439L91.1019 123.508C91.2355 123.642 91.3692 123.642 91.5028 123.642C91.9036 123.642 92.1708 123.508 92.3044 123.107C92.7053 122.573 92.438 122.039 92.0372 121.771Z" fill="#3BCAD1"/>
<path d="M106.334 115.625L104.864 117.763C104.597 118.164 104.73 118.832 105.131 119.099C105.265 119.233 105.532 119.233 105.666 119.233C105.933 119.233 106.334 119.099 106.467 118.832L107.937 116.694C108.204 116.293 108.071 115.625 107.67 115.358C107.269 115.091 106.601 115.224 106.334 115.625Z" fill="#3BCAD1"/>
<path d="M112.48 121.103C112.212 120.569 111.678 120.435 111.144 120.702L108.872 121.771C108.338 122.039 108.204 122.573 108.471 123.107C108.605 123.508 109.006 123.642 109.273 123.642C109.407 123.642 109.54 123.642 109.674 123.508L111.945 122.439C112.48 122.172 112.747 121.638 112.48 121.103Z" fill="#3BCAD1"/>
<path d="M193.715 42.1392C190.108 33.1873 178.083 29.5798 166.726 34.1226C155.369 38.6653 149.223 49.4878 152.697 58.4398C155.903 66.5901 166.191 70.3312 176.479 67.5253C178.617 70.3312 181.957 73.8051 186.5 76.6109H188.504L184.897 71.4001L184.763 71.5337C184.095 69.6631 183.427 67.2581 182.759 64.9867C192.245 59.9095 196.922 50.2895 193.715 42.1392Z" fill="#EDEDED"/>
<path d="M195.719 42.1392C192.112 33.1873 180.087 29.5798 168.73 34.1226C157.373 38.6653 151.227 49.4878 154.701 58.4398C157.908 66.5901 168.196 70.3312 178.484 67.5253C180.755 70.3312 184.095 73.9387 188.638 76.6109C188.638 76.6109 186.5 70.8656 184.897 64.8531C194.116 59.9095 198.926 50.2895 195.719 42.1392Z" fill="white"/>
<path d="M164.321 49.2207L174.342 60.9784L184.362 40.6696L173.273 53.8971L164.321 49.2207Z" fill="#3BCAD1"/>
<path d="M333.339 156.243C315.569 149.162 296.596 154.773 290.851 168.803C288.98 173.479 288.846 178.423 290.049 183.233C284.571 184.168 276.688 184.836 270.007 183.099L268.404 181.763H266.533C266.533 181.763 275.485 195.258 294.725 192.986C298.867 198.999 305.147 204.076 313.03 207.283C330.8 214.364 349.773 208.752 355.518 194.723C360.996 180.56 351.243 163.324 333.339 156.243Z" fill="#EDEDED"/>
<path d="M335.477 156.243C317.706 149.162 298.734 154.773 292.988 168.803C291.118 173.479 290.984 178.423 292.187 183.233C285.64 184.301 275.619 185.103 268.537 181.763C268.537 181.763 277.489 195.258 296.729 192.986C300.871 198.999 307.151 204.076 315.034 207.283C332.804 214.364 351.777 208.752 357.522 194.723C363.001 180.56 353.247 163.324 335.477 156.243Z" fill="white"/>
<path d="M324.654 169.738C328.529 169.738 331.068 171.608 331.068 175.082C331.068 179.224 327.46 180.026 326.525 182.832C326.391 183.099 326.258 183.366 326.124 183.5C325.857 183.901 325.322 184.034 324.788 184.034C324.253 184.034 323.719 183.767 323.318 183.366C323.051 182.965 322.917 182.297 323.051 181.763C323.986 179.091 326.658 178.423 326.658 175.884C326.658 174.414 325.723 173.746 324.12 173.746C322.917 173.746 321.982 174.281 321.581 175.349C321.448 175.75 321.18 176.018 320.913 176.285C320.646 176.552 320.245 176.686 319.844 176.686H319.577C319.176 176.686 318.775 176.552 318.508 176.285C317.974 175.884 317.706 175.082 317.84 174.414C318.909 171.475 321.18 169.738 324.654 169.738ZM326.792 189.111C326.792 190.581 325.857 191.516 324.387 191.516C323.051 191.516 321.982 190.448 321.982 189.111C321.982 187.642 323.051 186.706 324.387 186.706C325.857 186.706 326.792 187.642 326.792 189.111Z" fill="#3BCAD1"/>
<path d="M232.73 71.9347C232.329 71.9347 232.062 71.6674 232.062 71.2666V66.9911C232.062 66.5902 232.329 66.323 232.73 66.323C233.131 66.323 233.398 66.5902 233.398 66.9911V71.2666C233.398 71.6674 233.131 71.9347 232.73 71.9347ZM233.398 79.4169V75.1413C233.398 74.7405 233.131 74.4733 232.73 74.4733C232.329 74.4733 232.062 74.7405 232.062 75.1413V79.4169C232.062 79.8177 232.329 80.0849 232.73 80.0849C233.131 79.9513 233.398 79.6841 233.398 79.4169ZM239.544 73.1372C239.544 72.7363 239.277 72.4691 238.876 72.4691H234.6C234.199 72.4691 233.932 72.7363 233.932 73.1372C233.932 73.538 234.199 73.8052 234.6 73.8052H238.876C239.277 73.8052 239.544 73.538 239.544 73.1372ZM231.527 73.1372C231.527 72.7363 231.26 72.4691 230.859 72.4691H226.584C226.183 72.4691 225.916 72.7363 225.916 73.1372C225.916 73.538 226.183 73.8052 226.584 73.8052H230.859C231.26 73.8052 231.527 73.538 231.527 73.1372Z" fill="#41DDE5"/>
<path d="M57.1647 277.696C56.7639 277.696 56.4966 277.428 56.4966 277.028V272.752C56.4966 272.351 56.7639 272.084 57.1647 272.084C57.5655 272.084 57.8328 272.351 57.8328 272.752V277.028C57.6991 277.428 57.4319 277.696 57.1647 277.696ZM57.6991 285.178V280.902C57.6991 280.501 57.4319 280.234 57.0311 280.234C56.6303 280.234 56.363 280.501 56.363 280.902V285.178C56.363 285.579 56.6303 285.846 57.0311 285.846C57.4319 285.846 57.6991 285.579 57.6991 285.178ZM63.9789 279.032C63.9789 278.631 63.7116 278.364 63.3108 278.364H59.0353C58.6344 278.364 58.3672 278.631 58.3672 279.032C58.3672 279.433 58.6344 279.7 59.0353 279.7H63.3108C63.578 279.566 63.9789 279.299 63.9789 279.032ZM55.8286 279.032C55.8286 278.631 55.5614 278.364 55.1605 278.364H50.885C50.4841 278.364 50.2169 278.631 50.2169 279.032C50.2169 279.433 50.4841 279.7 50.885 279.7H55.1605C55.5614 279.566 55.8286 279.299 55.8286 279.032Z" fill="#41DDE5"/>
<path d="M96.1792 53.2291C95.7783 53.2291 95.5111 52.9619 95.5111 52.561V48.2855C95.5111 47.8847 95.7783 47.6174 96.1792 47.6174C96.58 47.6174 96.8472 47.8847 96.8472 48.2855V52.561C96.8472 52.9619 96.58 53.2291 96.1792 53.2291ZM96.8472 60.7113V56.4358C96.8472 56.0349 96.58 55.7677 96.1792 55.7677C95.7783 55.7677 95.5111 56.0349 95.5111 56.4358V60.7113C95.5111 61.1122 95.7783 61.3794 96.1792 61.3794C96.58 61.2458 96.8472 60.9785 96.8472 60.7113ZM102.993 54.4316C102.993 54.0308 102.726 53.7635 102.325 53.7635H98.0497C97.6489 53.7635 97.3817 54.0308 97.3817 54.4316C97.3817 54.8324 97.6489 55.0997 98.0497 55.0997H102.325C102.726 55.0997 102.993 54.8324 102.993 54.4316ZM94.9767 54.4316C94.9767 54.0308 94.7094 53.7635 94.3086 53.7635H90.033C89.6322 53.7635 89.365 54.0308 89.365 54.4316C89.365 54.8324 89.6322 55.0997 90.033 55.0997H94.3086C94.7094 55.0997 94.9767 54.8324 94.9767 54.4316Z" fill="#41DDE5"/>
<path d="M377.698 222.381C377.297 222.381 377.03 222.113 377.03 221.713V217.437C377.03 217.036 377.297 216.769 377.698 216.769C378.099 216.769 378.366 217.036 378.366 217.437V221.713C378.366 222.113 378.099 222.381 377.698 222.381ZM378.366 229.729V225.454C378.366 225.053 378.099 224.786 377.698 224.786C377.297 224.786 377.03 225.053 377.03 225.454V229.729C377.03 230.13 377.297 230.397 377.698 230.397C378.099 230.397 378.366 230.13 378.366 229.729ZM384.512 223.583C384.512 223.182 384.245 222.915 383.844 222.915H379.568C379.167 222.915 378.9 223.182 378.9 223.583C378.9 223.984 379.167 224.251 379.568 224.251H383.844C384.245 224.251 384.512 223.984 384.512 223.583ZM376.495 223.583C376.495 223.182 376.228 222.915 375.827 222.915H371.552C371.151 222.915 370.884 223.182 370.884 223.583C370.884 223.984 371.151 224.251 371.552 224.251H375.827C376.228 224.251 376.495 223.984 376.495 223.583Z" fill="#41DDE5"/>
<path d="M145.883 194.857C145.482 194.857 145.214 194.59 145.214 194.189V189.913C145.214 189.512 145.482 189.245 145.883 189.245C146.283 189.245 146.551 189.512 146.551 189.913V194.189C146.551 194.59 146.283 194.857 145.883 194.857ZM146.551 202.339V198.063C146.551 197.663 146.283 197.395 145.883 197.395C145.482 197.395 145.214 197.663 145.214 198.063V202.339C145.214 202.74 145.482 203.007 145.883 203.007C146.283 203.007 146.551 202.74 146.551 202.339ZM152.697 196.193C152.697 195.792 152.429 195.525 152.029 195.525H147.753C147.352 195.525 147.085 195.792 147.085 196.193C147.085 196.594 147.352 196.861 147.753 196.861H152.029C152.429 196.727 152.697 196.46 152.697 196.193ZM144.68 196.193C144.68 195.792 144.413 195.525 144.012 195.525H139.736C139.336 195.525 139.068 195.792 139.068 196.193C139.068 196.594 139.336 196.861 139.736 196.861H144.012C144.413 196.727 144.68 196.46 144.68 196.193Z" fill="#41DDE5"/>
<path d="M59.7034 326.731H50.6178V522.337H59.7034V326.731Z" fill="#897C76"/>
<path d="M386.783 326.731H377.698V522.337H386.783V326.731Z" fill="#897C76"/>
<path d="M82.2837 326.731H73.1981V522.337H82.2837V326.731Z" fill="#6D625E"/>
<path d="M364.07 326.731H354.984V522.337H364.07V326.731Z" fill="#6D625E"/>
<path d="M403.485 315.641H34.0499V332.476H403.485V315.641Z" fill="#EAB236"/>
<path d="M403.485 315.374H34.0499V318.447H403.485V315.374Z" fill="#F2D041"/>
<path opacity="0.7" d="M334.809 128.586C369.048 128.586 396.804 100.829 396.804 66.5903C396.804 32.3511 369.048 4.59473 334.809 4.59473C300.569 4.59473 272.813 32.3511 272.813 66.5903C272.813 100.829 300.569 128.586 334.809 128.586Z" fill="white"/>
<path d="M334.809 1.38794C298.734 1.38794 269.606 30.5152 269.606 66.5902C269.606 102.665 298.734 131.792 334.809 131.792C370.884 131.792 400.011 102.665 400.011 66.5902C400.011 30.6488 370.884 1.38794 334.809 1.38794ZM334.809 128.586C300.604 128.586 272.813 100.795 272.813 66.5902C272.813 32.3857 300.604 4.59461 334.809 4.59461C369.013 4.59461 396.804 32.3857 396.804 66.5902C396.804 100.795 369.013 128.586 334.809 128.586Z" fill="white"/>
<path d="M286.308 105.07C290.984 110.949 296.596 116.026 303.143 119.767L308.22 111.216L302.208 82.7571L286.308 105.07Z" fill="#492931"/>
<path d="M364.337 28.6446C364.337 28.6446 366.742 23.0329 363.134 22.2313C363.134 22.2313 364.871 17.8221 361.932 16.0851C361.932 16.0851 362.466 11.9432 358.592 11.5424C358.592 11.5424 358.191 7.66765 354.984 7.66765C354.984 7.66765 355.118 5.39626 352.713 6.06431C352.713 6.06431 350.575 1.52154 347.502 3.79292C347.502 3.79292 342.959 -0.48263 339.886 1.52154C339.886 1.52154 335.076 -0.616241 333.606 2.59043C332.537 2.05598 331.602 0.586259 328.663 3.39209C328.663 3.39209 324.387 2.59043 323.585 6.73237C323.585 6.73237 320.245 5.66348 319.176 11.2751C319.176 11.2751 316.103 9.67181 315.302 15.5507C315.302 15.5507 311.961 17.154 312.763 22.4985C312.763 22.4985 309.289 24.6363 311.56 29.3126C311.56 29.3126 309.423 33.5882 312.095 35.5924C312.095 35.5924 310.759 37.4629 313.965 39.8679C317.172 42.4065 348.437 41.7385 348.437 41.7385L361.798 39.1999C361.798 39.1999 363.669 35.5924 362.733 34.3899C362.733 34.3899 365.539 30.6488 364.337 28.6446Z" fill="#2E3642"/>
<path d="M352.846 73.8052L344.696 68.9952L347.903 80.6193L342.959 75.4085L326.658 81.2874C326.525 81.2874 326.258 81.5546 325.99 82.2227C325.99 81.6882 325.857 81.2874 325.857 81.2874L329.331 68.8616L321.18 73.6716L302.341 83.826C302.341 83.826 302.208 100.795 303.276 119.634C312.629 125.245 323.452 128.452 335.076 128.452C348.571 128.452 360.996 124.177 371.151 116.828C372.086 99.1913 371.953 83.826 371.953 83.826L352.846 73.8052Z" fill="#633F47"/>
<path d="M351.911 72.6026C351.911 72.6026 350.174 69.2623 348.437 67.7926C345.364 65.1204 338.015 64.5859 338.015 64.5859C338.015 64.5859 330.8 65.1204 327.594 67.7926C325.857 69.2623 324.12 72.6026 324.12 72.6026C324.12 72.6026 319.577 82.3562 324.12 90.5065C324.12 90.5065 329.999 83.5587 338.015 82.6234C346.032 83.5587 351.911 90.5065 351.911 90.5065C356.587 82.3562 351.911 72.6026 351.911 72.6026Z" fill="#492931"/>
<path d="M343.093 56.5693L336.946 59.6424L330.8 56.5693C331.468 61.9138 327.861 70.4649 327.861 70.4649C328.529 77.8135 336.946 81.2874 336.946 81.2874C336.946 81.2874 345.364 77.8135 346.032 70.4649C346.032 70.4649 342.424 61.9138 343.093 56.5693Z" fill="#EAA663"/>
<path d="M358.992 29.8471C356.32 11.9432 337.214 12.4777 337.214 12.4777C337.214 12.4777 315.702 11.676 315.435 29.8471C315.168 52.0266 320.111 65.3877 337.214 65.3877C354.316 65.3877 361.798 49.3543 358.992 29.8471Z" fill="#FFC585"/>
<path d="M343.093 52.0266L337.08 52.9619L331.068 52.0266H330.266C330.8 57.7719 333.606 62.1811 337.08 62.1811C340.554 62.1811 343.36 57.7719 343.894 52.0266H343.093Z" fill="#543239"/>
<path d="M342.692 56.7029C340.955 56.1685 339.084 55.9012 337.08 55.9012C334.942 55.9012 332.938 56.1685 331.201 56.8365C332.404 60.0432 334.541 62.181 336.946 62.181C339.351 62.181 341.489 60.0432 342.692 56.7029Z" fill="#CE5555"/>
<path d="M341.222 53.8972H332.938C331.869 53.8972 331.068 53.0955 331.068 52.0266H343.093C343.093 53.0955 342.157 53.8972 341.222 53.8972Z" fill="#FFE9E9"/>
<path d="M356.587 42.4066C356.587 42.4066 358.992 36.5277 361.932 37.7302C364.203 38.7991 363.134 45.8805 359.66 48.5527C356.187 51.2249 355.652 46.2813 355.652 46.2813L356.587 42.4066Z" fill="#FFC585"/>
<path d="M361.13 41.4713C361.13 41.4713 358.992 42.4066 358.725 44.5444C358.591 46.1477 360.061 45.8805 360.195 44.9452C360.328 44.0099 359.66 44.1435 359.66 44.1435C359.66 44.1435 359.927 42.4066 361.13 41.4713Z" fill="#EAA663"/>
<path d="M317.172 42.4066C317.172 42.4066 314.767 36.5277 311.827 37.7302C309.556 38.7991 310.625 45.8805 314.099 48.5527C317.573 51.2249 318.107 46.2813 318.107 46.2813L317.172 42.4066Z" fill="#FFC585"/>
<path d="M312.629 41.4713C312.629 41.4713 314.767 42.4066 315.034 44.5444C315.168 46.1477 313.698 45.8805 313.564 44.9452C313.431 44.0099 314.099 44.1435 314.099 44.1435C314.099 44.1435 313.832 42.4066 312.629 41.4713Z" fill="#EAA663"/>
<path d="M297.264 51.2248L309.422 72.2017C309.69 72.7362 310.224 73.0034 310.625 73.137C311.159 73.2706 311.694 73.137 312.228 72.8698L321.047 67.1245C321.581 66.8573 321.848 66.3229 321.982 65.6548C321.982 65.254 321.982 64.8531 321.715 64.4523L310.224 43.2081C310.091 42.9409 309.823 42.6737 309.422 42.4065C308.754 42.0056 307.953 42.0056 307.285 42.4065L297.798 48.419C297.531 48.6862 297.264 48.9534 297.13 49.2206C296.997 50.0223 296.997 50.6903 297.264 51.2248Z" fill="#2BBDCC"/>
<path d="M296.061 52.0266L308.22 73.0035C308.487 73.5379 309.022 73.8052 309.423 73.9388C309.957 74.0724 310.491 73.9388 311.026 73.6716L319.844 67.9263C320.379 67.659 320.646 67.1246 320.78 66.4566C320.78 66.0557 320.78 65.6549 320.512 65.254L309.022 44.0099C308.888 43.7427 308.621 43.4754 308.22 43.2082C307.552 42.8074 306.75 42.8074 306.082 43.2082L296.596 49.2207C296.329 49.4879 296.061 49.7552 295.928 50.0224C295.794 50.8241 295.794 51.4921 296.061 52.0266Z" fill="#118E8E"/>
<path d="M326.658 41.8721C327.544 41.8721 328.262 40.915 328.262 39.7343C328.262 38.5537 327.544 37.5966 326.658 37.5966C325.773 37.5966 325.055 38.5537 325.055 39.7343C325.055 40.915 325.773 41.8721 326.658 41.8721Z" fill="#28171B"/>
<path d="M344.696 41.8721C345.581 41.8721 346.299 40.915 346.299 39.7343C346.299 38.5537 345.581 37.5966 344.696 37.5966C343.81 37.5966 343.093 38.5537 343.093 39.7343C343.093 40.915 343.81 41.8721 344.696 41.8721Z" fill="#28171B"/>
<path d="M334.541 42.8074C334.541 42.8074 333.473 46.8157 334.274 47.4838C335.076 48.2854 338.283 47.751 338.283 47.751C338.283 47.751 337.481 49.8888 336.412 49.6215C335.343 49.2207 332.938 48.5527 333.072 47.0829C333.339 45.6132 334.541 42.8074 334.541 42.8074Z" fill="#EAA663"/>
<path d="M336.946 94.7821C337.832 94.7821 338.55 94.0643 338.55 93.1788C338.55 92.2933 337.832 91.5754 336.946 91.5754C336.061 91.5754 335.343 92.2933 335.343 93.1788C335.343 94.0643 336.061 94.7821 336.946 94.7821Z" fill="#EFEFEF"/>
<path d="M336.946 113.354C337.832 113.354 338.55 112.636 338.55 111.751C338.55 110.865 337.832 110.147 336.946 110.147C336.061 110.147 335.343 110.865 335.343 111.751C335.343 112.636 336.061 113.354 336.946 113.354Z" fill="#EFEFEF"/>
<path d="M332.537 21.9641C332.537 21.9641 334.809 24.1019 338.951 21.8305C338.951 21.8305 342.959 25.0372 346.032 23.5674C346.032 23.5674 347.769 28.1102 352.846 26.5069C352.846 26.5069 352.445 32.7866 355.786 32.653C355.786 32.653 354.316 36.6613 356.854 37.5966L359.66 38.2647L360.596 28.2438L358.191 19.0247L347.635 10.4735L338.282 7.93494L325.456 10.7408L319.176 16.486L313.03 26.2397L312.095 32.9202L315.702 40.0016C315.702 40.0016 318.775 40.536 318.107 36.9285C318.107 36.9285 321.848 33.5883 321.18 30.5152C321.18 30.5152 325.322 28.3774 325.322 24.6363C325.189 24.5027 330.8 27.3085 332.537 21.9641Z" fill="#2E3642"/>
<path d="M325.055 32.3859C325.055 32.3859 328.395 27.3086 331.468 30.1145L330.533 31.5842C330.533 31.5842 327.326 30.9161 325.055 32.3859Z" fill="#543239"/>
<path d="M348.838 32.5193C348.838 32.5193 345.765 27.3085 342.558 29.8471L343.36 31.4504C343.493 31.4504 346.7 31.0496 348.838 32.5193Z" fill="#543239"/>
<path d="M280.429 96.3854C283.635 102.131 287.644 107.342 292.32 111.751C294.458 106.406 302.207 84.0932 305.281 74.7404L298.199 68.0598C298.199 67.9262 289.114 82.8907 280.429 96.3854Z" fill="#FFC585"/>
<path d="M371.685 83.9596L370.884 116.962C376.094 113.22 380.771 108.544 384.645 103.333L371.685 83.9596Z" fill="#492931"/>
<path d="M298.6 80.3522L298.199 67.9264C298.199 67.9264 298.333 54.4317 299.135 52.9619C299.803 51.4922 308.22 47.7511 309.155 48.1519C310.091 48.5528 311.16 50.6905 311.961 52.0267C312.763 53.3628 314.901 55.2333 314.233 57.1039C313.565 58.9744 308.354 60.5778 308.087 63.25C307.819 65.9222 309.289 73.0036 305.281 74.6069L298.6 80.3522Z" fill="#FFC585"/>
</svg>
